<svg width="14" height="12" viewBox="0 0 14 12" fill="none" xmlns="http://www.w3.org/2000/svg">
<path fill-rule="evenodd" clip-rule="evenodd" d="M4.07034 7.2749e-07C4.72353 -0.000389951 5.36719 0.156578 5.94687 0.457623C6.29263 0.637189 6.60956 0.864863 6.88869 1.13281C7.61951 0.431756 8.61259 7.2749e-07 9.7062 7.2749e-07C11.9542 7.2749e-07 13.7765 1.8224 13.7765 4.07034C13.7765 6.03295 12.6269 7.8272 11.2862 9.18113C9.93939 10.5412 8.2923 11.5671 7.08574 11.9681C6.95754 12.0106 6.81901 12.0106 6.69081 11.9681C5.48425 11.5671 3.83715 10.5412 2.49038 9.18113C1.14969 7.8272 0 6.03295 0 4.07034C0 1.82254 1.82216 0.000240204 4.0699 8.76789e-07M5.36965 1.56909C4.96842 1.36072 4.52289 1.25209 4.07079 1.25241L4.07034 1.25241C2.51409 1.25241 1.25241 2.51409 1.25241 4.07034C1.25241 5.55188 2.13789 7.04521 3.38031 8.2999C4.53657 9.46759 5.90942 10.3337 6.88827 10.7087C7.86713 10.3337 9.23997 9.46759 10.3962 8.2999C11.6387 7.04521 12.5241 5.55188 12.5241 4.07034C12.5241 2.51409 11.2625 1.25241 9.7062 1.25241C8.7537 1.25241 7.9111 1.72452 7.40034 2.45011C7.28297 2.61684 7.09178 2.71599 6.88788 2.71586C6.68398 2.71573 6.49292 2.61634 6.37576 2.44946C6.11598 2.07944 5.77087 1.77746 5.36965 1.56909Z" fill="#595959"/>
</svg>
