<svg width="13" height="12" viewBox="0 0 13 12" fill="none" xmlns="http://www.w3.org/2000/svg">
<path d="M0.301938 1.92C0.103218 1.70674 -0.00496705 1.42467 0.00017527 1.13322C0.00531759 0.841764 0.123386 0.563687 0.329505 0.357567C0.535625 0.151448 0.813702 0.0333799 1.10515 0.0282376C1.39661 0.0230953 1.67868 0.13128 1.89194 0.33L6.76694 5.205C6.97761 5.41594 7.09595 5.70187 7.09595 6C7.09595 6.29813 6.97761 6.58406 6.76694 6.795L1.89194 11.67C1.67868 11.8687 1.39661 11.9769 1.10515 11.9718C0.813702 11.9666 0.535625 11.8486 0.329505 11.6424C0.123386 11.4363 0.00531759 11.1582 0.00017527 10.8668C-0.00496705 10.5753 0.103218 10.2933 0.301938 10.08L4.38194 6L0.301938 1.92ZM11.2219 12C11.5203 12 11.8065 11.8815 12.0174 11.6705C12.2284 11.4595 12.3469 11.1734 12.3469 10.875V1.125C12.3469 0.826631 12.2284 0.540483 12.0174 0.329505C11.8065 0.118526 11.5203 0 11.2219 0C10.9236 0 10.6374 0.118526 10.4264 0.329505C10.2155 0.540483 10.0969 0.826631 10.0969 1.125V10.875C10.0969 11.496 10.6009 12 11.2219 12Z" fill="#595959"/>
</svg>
