<svg width="11" height="12" viewBox="0 0 11 12" fill="none" xmlns="http://www.w3.org/2000/svg">
<path d="M2 0C2.53043 0 3.03914 0.210714 3.41421 0.585787C3.78929 0.960859 4 1.46957 4 2V10C4 10.5304 3.78929 11.0391 3.41421 11.4142C3.03914 11.7893 2.53043 12 2 12C1.46957 12 0.960859 11.7893 0.585786 11.4142C0.210713 11.0391 1.1178e-08 10.5304 0 10V2C0 1.46957 0.210713 0.960859 0.585786 0.585787C0.960859 0.210714 1.46957 0 2 0V0ZM8.66667 0C9.1971 0 9.70581 0.210714 10.0809 0.585787C10.456 0.960859 10.6667 1.46957 10.6667 2V10C10.6667 10.5304 10.456 11.0391 10.0809 11.4142C9.70581 11.7893 9.1971 12 8.66667 12C8.13623 12 7.62753 11.7893 7.25245 11.4142C6.87738 11.0391 6.66667 10.5304 6.66667 10V2C6.66667 1.46957 6.87738 0.960859 7.25245 0.585787C7.62753 0.210714 8.13623 0 8.66667 0Z" fill="#595959"/>
</svg>
