<svg width="13" height="12" viewBox="0 0 13 12" fill="none" xmlns="http://www.w3.org/2000/svg">
<path d="M7.965 6L12.045 1.92C12.2437 1.70674 12.3519 1.42467 12.3468 1.13322C12.3416 0.841764 12.2236 0.563687 12.0174 0.357567C11.8113 0.151448 11.5332 0.0333799 11.2418 0.0282376C10.9503 0.0230953 10.6683 0.13128 10.455 0.33L5.58 5.205C5.36932 5.41594 5.25099 5.70187 5.25099 6C5.25099 6.29813 5.36932 6.58406 5.58 6.795L10.455 11.67C10.6683 11.8687 10.9503 11.9769 11.2418 11.9718C11.5332 11.9666 11.8113 11.8486 12.0174 11.6424C12.2236 11.4363 12.3416 11.1582 12.3468 10.8668C12.3519 10.5753 12.2437 10.2933 12.045 10.08L7.965 6ZM2.25 1.125C2.25 0.826631 2.13147 0.540483 1.9205 0.329505C1.70952 0.118526 1.42337 0 1.125 0C0.826631 0 0.540483 0.118526 0.329505 0.329505C0.118526 0.540483 0 0.826631 0 1.125V10.875C0 11.1734 0.118526 11.4595 0.329505 11.6705C0.540483 11.8815 0.826631 12 1.125 12C1.42337 12 1.70952 11.8815 1.9205 11.6705C2.13147 11.4595 2.25 11.1734 2.25 10.875V1.125Z" fill="#595959"/>
</svg>
